<svg xmlns="http://www.w3.org/2000/svg" xmlns:xlink="http://www.w3.org/1999/xlink" viewBox="0,0,256,256" width="100px" height="100px" fill-rule="nonzero"><g fill="none" fill-rule="nonzero" stroke="none" stroke-width="1" stroke-linecap="butt" stroke-linejoin="miter" stroke-miterlimit="10" stroke-dasharray="" stroke-dashoffset="0" font-family="none" font-weight="none" font-size="none" text-anchor="none" style="mix-blend-mode: normal"><g transform="scale(2.56,2.56)"><path d="M87.215,56.71c1.135,-2.155 1.785,-4.605 1.785,-7.21c0,-6.621 -4.159,-12.257 -10.001,-14.478c0,-0.007 0.001,-0.014 0.001,-0.022c0,-11.598 -9.402,-21 -21,-21c-9.784,0 -17.981,6.701 -20.313,15.757c-1.476,-0.485 -3.049,-0.757 -4.687,-0.757c-7.692,0 -14.023,5.793 -14.89,13.252c-5.204,1.101 -9.11,5.717 -9.11,11.248c0,6.351 5.149,11.5 11.5,11.5c0.177,0 0.352,-0.012 0.526,-0.022c-0.004,0.175 -0.026,0.346 -0.026,0.522c0,11.322 9.178,20.5 20.5,20.5c6.437,0 12.175,-2.972 15.934,-7.614c2.178,2.225 5.206,3.614 8.566,3.614c4.65,0 8.674,-2.65 10.666,-6.518c1.052,0.335 2.171,0.518 3.334,0.518c6.075,0 11,-4.925 11,-11c0,-3.311 -1.47,-6.273 -3.785,-8.29z" fill="#2aaeff"></path><path d="M69.5,34.5v0.5h-3v-0.5c0,0 -4.242,0 -5.5,0c-2.485,0 -4.5,-2.015 -4.5,-4.5c0,-2.333 1.782,-4.229 4.055,-4.455c-0.022,-0.181 -0.055,-0.358 -0.055,-0.545c0,-2.485 2.015,-4.5 4.5,-4.5c1.438,0 2.703,0.686 3.527,1.736c0.14,-2.636 2.302,-4.736 4.973,-4.736c2.761,0 5,2.239 5,5c0,0.446 -0.077,0.87 -0.187,1.282c0.642,-0.777 1.6,-1.282 2.687,-1.282c1.781,0 3.234,1.335 3.455,3.055c0.181,-0.022 0.358,-0.055 0.545,-0.055c2.485,0 4.5,2.015 4.5,4.5c0,2.485 -2.015,4.5 -4.5,4.5c-2.485,0 -9.5,0 -9.5,0z" fill="#fdfcef"></path><path d="M73.5,17c3.033,0 5.5,2.467 5.5,5.5c0,0.016 0,0.031 0,0.047c0.602,-0.355 1.29,-0.547 2,-0.547c1.831,0 3.411,1.261 3.858,3.005c0.047,-0.003 0.094,-0.005 0.142,-0.005c2.757,0 5,2.243 5,5c0,2.757 -2.243,5 -5,5h-15.5c-0.276,0 -0.5,-0.224 -0.5,-0.5c0,-0.276 0.224,-0.5 0.5,-0.5h15.5c2.206,0 4,-1.794 4,-4c0,-2.206 -1.794,-4 -4,-4c-0.117,0 -0.23,0.017 -0.343,0.032l-0.141,0.019c-0.021,0.003 -0.041,0.004 -0.062,0.004c-0.246,0 -0.462,-0.185 -0.495,-0.437c-0.191,-1.493 -1.463,-2.618 -2.959,-2.618c-0.885,0 -1.723,0.401 -2.301,1.1c-0.098,0.118 -0.241,0.182 -0.386,0.182c-0.078,0 -0.156,-0.018 -0.228,-0.056c-0.209,-0.107 -0.314,-0.346 -0.254,-0.573c0.115,-0.435 0.169,-0.801 0.169,-1.153c0,-2.481 -2.019,-4.5 -4.5,-4.5c-2.381,0 -4.347,1.872 -4.474,4.263c-0.011,0.208 -0.15,0.387 -0.349,0.45c-0.05,0.016 -0.101,0.024 -0.152,0.024c-0.15,0 -0.296,-0.069 -0.392,-0.192c-0.771,-0.982 -1.912,-1.545 -3.133,-1.545c-2.206,0 -4,1.794 -4,4c0,0.117 0.017,0.23 0.032,0.343l0.019,0.141c0.016,0.134 -0.022,0.268 -0.106,0.373c-0.084,0.105 -0.207,0.172 -0.34,0.185c-2.056,0.205 -3.605,1.907 -3.605,3.958c0,2.206 1.794,4 4,4h5.5c0.276,0 0.5,0.224 0.5,0.5c0,0.276 -0.224,0.5 -0.5,0.5h-5.5c-2.757,0 -5,-2.243 -5,-5c0,-2.397 1.689,-4.413 4.003,-4.877c-0.002,-0.041 -0.003,-0.082 -0.003,-0.123c0,-2.757 2.243,-5 5,-5c1.176,0 2.293,0.416 3.183,1.164c0.598,-2.404 2.762,-4.164 5.317,-4.164z" fill="#472b29"></path><path d="M75,24c1.403,0 2.609,0.999 2.913,2.341c0.367,-0.222 0.786,-0.341 1.212,-0.341c1.202,0 2.198,0.897 2.353,2.068c0.203,-0.046 0.396,-0.068 0.585,-0.068c1.529,0 2.811,1.2 2.918,2.732c0.009,0.138 -0.095,0.258 -0.232,0.268c-0.006,0 -0.012,0 -0.018,0c-0.13,0 -0.24,-0.101 -0.249,-0.232c-0.089,-1.271 -1.151,-2.268 -2.419,-2.268c-0.229,0 -0.47,0.042 -0.738,0.127c-0.022,0.007 -0.045,0.01 -0.067,0.01c-0.055,0 -0.11,-0.02 -0.156,-0.054c-0.064,-0.046 -0.102,-0.128 -0.102,-0.208c0,-1.034 -0.841,-1.875 -1.875,-1.875c-0.447,0 -0.885,0.168 -1.231,0.473c-0.047,0.041 -0.106,0.063 -0.165,0.063c-0.032,0 -0.063,-0.006 -0.093,-0.019c-0.088,-0.035 -0.148,-0.117 -0.155,-0.212c-0.104,-1.293 -1.193,-2.305 -2.481,-2.305c-0.208,0 -0.425,0.034 -0.682,0.107c-0.023,0.007 -0.047,0.01 -0.07,0.01c-0.109,0 -0.207,-0.073 -0.239,-0.182c-0.038,-0.133 0.039,-0.271 0.172,-0.309c0.302,-0.086 0.563,-0.126 0.819,-0.126z" fill="#472b29"></path><path d="M61.117,25.5c1.326,0 2.508,0.897 2.874,2.182c0.038,0.133 -0.039,0.271 -0.172,0.309c-0.024,0.006 -0.047,0.009 -0.069,0.009c-0.109,0 -0.209,-0.072 -0.24,-0.182c-0.305,-1.07 -1.289,-1.818 -2.393,-1.818c-0.117,0 -0.23,0.014 -0.342,0.029c-0.012,0.002 -0.023,0.003 -0.035,0.003c-0.121,0 -0.229,-0.092 -0.246,-0.217c-0.019,-0.137 0.077,-0.263 0.214,-0.281c0.134,-0.018 0.27,-0.034 0.409,-0.034z" fill="#472b29"></path><path d="M68.035,75h-10.729l17.694,-17.694v10.729c0,3.847 -3.118,6.965 -6.965,6.965z" fill="#cc3354"></path><path d="M57.998,75h-13.867l30.869,-30.869v13.867z" fill="#ee3e54"></path><path d="M75,37.965v6.478l-30.557,30.557h-6.478c-2.031,0 -3.854,-0.875 -5.127,-2.262l39.9,-39.9c1.387,1.273 2.262,3.095 2.262,5.127z" fill="#ed5d40"></path><path d="M72.901,32.986l-39.915,39.916c-1.227,-1.256 -1.986,-2.972 -1.986,-4.867v-7.015l30.02,-30.02h7.015c1.895,0 3.611,0.759 4.866,1.986z" fill="#ee8670"></path><path d="M31,61.333v-13.868l16.465,-16.465h13.868z" fill="#ef9922"></path><path d="M37.965,31h10.389l-17.354,17.354v-10.39c0,-3.846 3.118,-6.964 6.965,-6.964z" fill="#f1bc19"></path><path d="M61.5,34.5h-6.5c-0.276,0 -0.5,-0.224 -0.5,-0.5c0,-0.276 0.224,-0.5 0.5,-0.5h6.5c0.276,0 0.5,0.224 0.5,0.5c0,0.276 -0.224,0.5 -0.5,0.5z" fill="#472b29"></path><path d="M34,42.262c-0.276,0 -0.5,-0.224 -0.5,-0.5v-4.27c0,-2.201 1.942,-3.992 4.329,-3.992h13.736c0.276,0 0.5,0.224 0.5,0.5c0,0.276 -0.224,0.5 -0.5,0.5h-13.736c-1.836,0 -3.329,1.342 -3.329,2.992v4.27c0,0.276 -0.224,0.5 -0.5,0.5z" fill="#472b29"></path><path d="M72,59c-0.276,0 -0.5,-0.224 -0.5,-0.5v-10c0,-0.276 0.224,-0.5 0.5,-0.5c0.276,0 0.5,0.224 0.5,0.5v10c0,0.276 -0.224,0.5 -0.5,0.5z" fill="#472b29"></path><path d="M47.625,72.5h-9.85c-2.357,0 -4.275,-1.791 -4.275,-3.992v-21.008c0,-0.276 0.224,-0.5 0.5,-0.5c0.276,0 0.5,0.224 0.5,0.5v21.008c0,1.65 1.47,2.992 3.275,2.992h9.85c0.276,0 0.5,0.224 0.5,0.5c0,0.276 -0.224,0.5 -0.5,0.5z" fill="#472b29"></path><path d="M68.225,72.5h-17.6c-0.276,0 -0.5,-0.224 -0.5,-0.5c0,-0.276 0.224,-0.5 0.5,-0.5h17.6c1.806,0 3.275,-1.342 3.275,-2.992v-6.27c0,-0.276 0.224,-0.5 0.5,-0.5c0.276,0 0.5,0.224 0.5,0.5v6.27c0,2.201 -1.918,3.992 -4.275,3.992z" fill="#472b29"></path><path d="M68.625,75.7h-31.25c-3.901,0 -7.075,-3.174 -7.075,-7.075v-31.25c0,-3.901 3.174,-7.075 7.075,-7.075h31.25c3.901,0 7.075,3.174 7.075,7.075v31.25c0,3.901 -3.174,7.075 -7.075,7.075zM37.375,31.7c-3.129,0 -5.675,2.546 -5.675,5.675v31.25c0,3.129 2.546,5.675 5.675,5.675h31.25c3.129,0 5.675,-2.546 5.675,-5.675v-31.25c0,-3.129 -2.546,-5.675 -5.675,-5.675z" fill="#472b29"></path><path d="M17.5,44h-10c-0.276,0 -0.5,-0.224 -0.5,-0.5c0,-0.276 0.224,-0.5 0.5,-0.5h10c0.276,0 0.5,0.224 0.5,0.5c0,0.276 -0.223,0.5 -0.5,0.5z" fill="#ffffff"></path><path d="M20.5,44h-1c-0.276,0 -0.5,-0.224 -0.5,-0.5c0,-0.276 0.224,-0.5 0.5,-0.5h1c0.276,0 0.5,0.224 0.5,0.5c0,0.276 -0.223,0.5 -0.5,0.5z" fill="#ffffff"></path><path d="M25.491,46h-8.991c-0.276,0 -0.5,-0.224 -0.5,-0.5c0,-0.276 0.224,-0.5 0.5,-0.5h8.991c0.276,0 0.5,0.224 0.5,0.5c0,0.276 -0.224,0.5 -0.5,0.5z" fill="#ffffff"></path><path d="M14.5,46h-1c-0.276,0 -0.5,-0.224 -0.5,-0.5c0,-0.276 0.224,-0.5 0.5,-0.5h1c0.276,0 0.5,0.224 0.5,0.5c0,0.276 -0.223,0.5 -0.5,0.5z" fill="#ffffff"></path><path d="M11.5,46h-2c-0.276,0 -0.5,-0.224 -0.5,-0.5c0,-0.276 0.224,-0.5 0.5,-0.5h2c0.276,0 0.5,0.224 0.5,0.5c0,0.276 -0.223,0.5 -0.5,0.5z" fill="#ffffff"></path><path d="M17.5,48h-2c-0.276,0 -0.5,-0.224 -0.5,-0.5c0,-0.276 0.224,-0.5 0.5,-0.5h2c0.276,0 0.5,0.224 0.5,0.5c0,0.276 -0.224,0.5 -0.5,0.5z" fill="#ffffff"></path><path d="M20.5,39c-0.177,0 -0.823,0 -1,0c-0.276,0 -0.5,0.224 -0.5,0.5c0,0.276 0.224,0.5 0.5,0.5c0.177,0 0.823,0 1,0c0.276,0 0.5,-0.224 0.5,-0.5c0,-0.276 -0.224,-0.5 -0.5,-0.5z" fill="#ffffff"></path><path d="M20.5,41c-0.177,0 -4.823,0 -5,0c-0.276,0 -0.5,0.224 -0.5,0.5c0,0.276 0.224,0.5 0.5,0.5c0.177,0 4.823,0 5,0c0.276,0 0.5,-0.224 0.5,-0.5c0,-0.276 -0.224,-0.5 -0.5,-0.5z" fill="#ffffff"></path><path d="M25.5,43c-0.177,0 -2.823,0 -3,0c-0.276,0 -0.5,0.224 -0.5,0.5c0,0.276 0.224,0.5 0.5,0.5c0.177,0 2.823,0 3,0c0.276,0 0.5,-0.224 0.5,-0.5c0,-0.276 -0.224,-0.5 -0.5,-0.5z" fill="#ffffff"></path><g fill="#ffffff"><path d="M87.5,64h-10c-0.276,0 -0.5,-0.224 -0.5,-0.5c0,-0.276 0.224,-0.5 0.5,-0.5h10c0.276,0 0.5,0.224 0.5,0.5c0,0.276 -0.224,0.5 -0.5,0.5z"></path><path d="M91.5,64h-2c-0.276,0 -0.5,-0.224 -0.5,-0.5c0,-0.276 0.224,-0.5 0.5,-0.5h2c0.276,0 0.5,0.224 0.5,0.5c0,0.276 -0.224,0.5 -0.5,0.5z"></path><path d="M96.5,66h-10c-0.276,0 -0.5,-0.224 -0.5,-0.5c0,-0.276 0.224,-0.5 0.5,-0.5h10c0.276,0 0.5,0.224 0.5,0.5c0,0.276 -0.223,0.5 -0.5,0.5z"></path><path d="M84.5,66h-1c-0.276,0 -0.5,-0.224 -0.5,-0.5c0,-0.276 0.224,-0.5 0.5,-0.5h1c0.276,0 0.5,0.224 0.5,0.5c0,0.276 -0.224,0.5 -0.5,0.5z"></path><path d="M81.47,66h-1.97c-0.276,0 -0.5,-0.224 -0.5,-0.5c0,-0.276 0.224,-0.5 0.5,-0.5h1.97c0.276,0 0.5,0.224 0.5,0.5c0,0.276 -0.224,0.5 -0.5,0.5z"></path><path d="M90.5,62h-5c-0.276,0 -0.5,-0.224 -0.5,-0.5c0,-0.276 0.224,-0.5 0.5,-0.5h5c0.276,0 0.5,0.224 0.5,0.5c0,0.276 -0.223,0.5 -0.5,0.5z"></path><path d="M87.5,68h-2c-0.276,0 -0.5,-0.224 -0.5,-0.5c0,-0.276 0.224,-0.5 0.5,-0.5h2c0.276,0 0.5,0.224 0.5,0.5c0,0.276 -0.224,0.5 -0.5,0.5z"></path></g><g><path d="M17.5,65.5c0,0 -1.567,0 -3.5,0c-1.933,0 -3.5,-1.567 -3.5,-3.5c0,-1.781 1.335,-3.234 3.055,-3.455c-0.028,-0.179 -0.055,-0.358 -0.055,-0.545c0,-1.933 1.567,-3.5 3.5,-3.5c1.032,0 1.95,0.455 2.59,1.165c0.384,-1.808 1.987,-3.165 3.91,-3.165c2.209,0 4,1.791 4,4c0,0.191 -0.03,0.374 -0.056,0.558c0.428,-0.344 0.964,-0.558 1.556,-0.558c1.228,0 2.245,0.887 2.455,2.055c0.179,-0.028 0.358,-0.055 0.545,-0.055c1.933,0 3.5,1.567 3.5,3.5c0,1.933 -1.567,3.5 -3.5,3.5c-1.933,0 -7.5,0 -7.5,0v0.5h-7z" fill="#fdfcef"></path><path d="M15.75,61c0.138,0 0.25,-0.112 0.25,-0.25c0,-1.223 -0.995,-2.218 -2.218,-2.218c-0.034,0.009 -0.737,-0.001 -1.244,0.136c-0.133,0.036 -0.212,0.173 -0.176,0.306c0.036,0.134 0.173,0.213 0.306,0.176c0.444,-0.12 1.1,-0.12 1.113,-0.118c0.948,0 1.719,0.771 1.719,1.718c0,0.138 0.112,0.25 0.25,0.25z" fill="#472b29"></path><circle cx="22.5" cy="65.5" r="0.5" fill="#472b29"></circle><path d="M14,66h3.5c0.276,0 0.5,-0.224 0.5,-0.5c0,-0.276 -0.224,-0.5 -0.5,-0.5h-3.5c-1.654,0 -3,-1.346 -3,-3c0,-1.496 1.125,-2.768 2.618,-2.959c0.134,-0.018 0.255,-0.088 0.336,-0.196c0.081,-0.108 0.115,-0.244 0.094,-0.377c-0.023,-0.154 -0.048,-0.308 -0.048,-0.468c0,-1.654 1.346,-3 3,-3c0.85,0 1.638,0.355 2.219,1c0.125,0.139 0.321,0.198 0.5,0.148c0.182,-0.049 0.321,-0.195 0.36,-0.379c0.341,-1.604 1.78,-2.769 3.421,-2.769c1.93,0 3.5,1.57 3.5,3.5c0,0.143 -0.021,0.28 -0.041,0.418c-0.029,0.203 0.063,0.438 0.242,0.54c0.179,0.102 0.396,0.118 0.556,-0.01c0.365,-0.293 0.794,-0.448 1.243,-0.448c0.966,0 1.792,0.691 1.963,1.644c0.048,0.267 0.296,0.446 0.569,0.405c0.154,-0.024 0.308,-0.049 0.468,-0.049c1.654,0 3,1.346 3,3c0,1.654 -1.346,3 -3,3h-7.5c-0.276,0 -0.5,0.224 -0.5,0.5c0,0.276 0.224,0.5 0.5,0.5h7.5c2.206,0 4,-1.794 4,-4c0,-2.206 -1.794,-4 -4,-4c-0.059,0 -0.116,0.002 -0.174,0.006c-0.414,-1.186 -1.537,-2.006 -2.826,-2.006c-0.349,0 -0.689,0.061 -1.011,0.18c-0.165,-2.333 -2.115,-4.18 -4.489,-4.18c-1.831,0 -3.466,1.127 -4.153,2.774c-0.68,-0.498 -1.502,-0.774 -2.347,-0.774c-2.206,0 -4,1.794 -4,4c0,0.048 0.001,0.095 0.004,0.142c-1.743,0.448 -3.004,2.027 -3.004,3.858c0,2.206 1.794,4 4,4z" fill="#472b29"></path><path d="M19.5,65c0.159,0 0.841,0 1,0c0.276,0 0.5,0.224 0.5,0.5c0,0.276 -0.224,0.5 -0.5,0.5c-0.159,0 -0.841,0 -1,0c-0.276,0 -0.5,-0.224 -0.5,-0.5c0,-0.276 0.224,-0.5 0.5,-0.5z" fill="#472b29"></path></g><g fill="#ffffff"><circle cx="53" cy="53" r="15"></circle></g><g fill="#472b29"><path d="M53,68.25c-8.409,0 -15.25,-6.841 -15.25,-15.25c0,-1.739 0.29,-3.445 0.863,-5.069c0.046,-0.13 0.188,-0.199 0.318,-0.153c0.13,0.046 0.198,0.189 0.152,0.319c-0.553,1.571 -0.833,3.221 -0.833,4.903c0,8.133 6.617,14.75 14.75,14.75c8.133,0 14.75,-6.617 14.75,-14.75c0,-8.133 -6.617,-14.75 -14.75,-14.75c-2.196,0 -4.309,0.471 -6.279,1.399c-0.121,0.058 -0.273,0.006 -0.333,-0.12c-0.059,-0.125 -0.005,-0.274 0.12,-0.333c2.038,-0.96 4.222,-1.447 6.492,-1.447c8.409,0 15.25,6.841 15.25,15.25c0,8.409 -6.841,15.251 -15.25,15.251z"></path></g><g fill="#472b29"><path d="M39.966,45.82c-0.042,0 -0.085,-0.011 -0.124,-0.033c-0.12,-0.068 -0.161,-0.221 -0.093,-0.341c1.011,-1.769 2.344,-3.297 3.962,-4.542c0.108,-0.084 0.266,-0.064 0.351,0.046c0.084,0.109 0.063,0.266 -0.046,0.351c-1.565,1.204 -2.854,2.682 -3.833,4.393c-0.046,0.081 -0.13,0.126 -0.217,0.126z"></path></g><g fill="#ee3e54"><circle cx="53" cy="53" r="11"></circle></g><g fill="#472b29"><path d="M53,64.25c-6.203,0 -11.25,-5.047 -11.25,-11.25c0,-2.338 0.711,-4.58 2.055,-6.482c0.079,-0.113 0.235,-0.139 0.349,-0.06c0.112,0.08 0.14,0.236 0.06,0.349c-1.284,1.818 -1.963,3.96 -1.963,6.194c0,5.928 4.822,10.75 10.75,10.75c5.928,0 10.749,-4.823 10.749,-10.751c0,-5.928 -4.822,-10.75 -10.75,-10.75c-2.465,0 -4.782,0.811 -6.702,2.345c-0.106,0.086 -0.264,0.069 -0.352,-0.039c-0.086,-0.108 -0.068,-0.265 0.039,-0.351c1.981,-1.583 4.473,-2.454 7.015,-2.454c6.203,0 11.25,5.047 11.25,11.25c0,6.203 -5.047,11.249 -11.25,11.249z"></path></g><g><circle cx="53" cy="53" r="7" fill="#836f61"></circle><path d="M53,60.25c-3.998,0 -7.25,-3.252 -7.25,-7.25c0,-3.998 3.252,-7.25 7.25,-7.25c3.998,0 7.25,3.252 7.25,7.25c0,3.998 -3.252,7.25 -7.25,7.25zM53,46.25c-3.722,0 -6.75,3.028 -6.75,6.75c0,3.722 3.028,6.75 6.75,6.75c3.722,0 6.75,-3.028 6.75,-6.75c0,-3.722 -3.028,-6.75 -6.75,-6.75z" fill="#472b29"></path></g><g fill="#1f212b"><circle cx="53" cy="53" r="4"></circle></g><g><ellipse cx="53" cy="49.5" rx="3" ry="1.5" fill="#cbc9bc"></ellipse><path d="M53,51.25c-1.822,0 -3.25,-0.769 -3.25,-1.75c0,-0.981 1.428,-1.75 3.25,-1.75c1.822,0 3.25,0.769 3.25,1.75c0,0.981 -1.428,1.75 -3.25,1.75zM53,48.25c-1.621,0 -2.75,0.659 -2.75,1.25c0,0.591 1.129,1.25 2.75,1.25c1.621,0 2.75,-0.659 2.75,-1.25c0,-0.591 -1.129,-1.25 -2.75,-1.25z" fill="#472b29"></path></g><g><path d="M39.777,63.553l0.86,2.363l2.363,0.861l-2.363,0.86l-0.86,2.363l-0.861,-2.363l-2.363,-0.86l2.363,-0.861z" fill="#ffffff"></path><path d="M39.776,70.25c-0.105,0 -0.199,-0.066 -0.235,-0.164l-0.82,-2.254l-2.254,-0.821c-0.099,-0.036 -0.164,-0.13 -0.164,-0.235c0,-0.105 0.065,-0.199 0.164,-0.235l2.254,-0.821l0.82,-2.254c0.072,-0.198 0.398,-0.198 0.471,0l0.82,2.254l2.254,0.821c0.099,0.036 0.164,0.13 0.164,0.235c0,0.105 -0.065,0.199 -0.164,0.235l-2.254,0.821l-0.82,2.254c-0.036,0.098 -0.13,0.164 -0.236,0.164zM37.283,66.776l1.719,0.626c0.069,0.025 0.124,0.08 0.149,0.149l0.625,1.718l0.625,-1.718c0.025,-0.069 0.08,-0.124 0.149,-0.149l1.719,-0.626l-1.719,-0.625c-0.069,-0.025 -0.124,-0.08 -0.149,-0.149l-0.625,-1.718l-0.625,1.718c-0.025,0.069 -0.08,0.124 -0.149,0.149z" fill="#472b29"></path></g><g><path d="M66.277,32.5l1.127,3.096l3.096,1.127l-3.096,1.128l-1.127,3.096l-1.128,-3.096l-3.096,-1.128l3.096,-1.127z" fill="#ffffff"></path><path d="M66.276,41.197v0c-0.105,0 -0.199,-0.066 -0.235,-0.165l-1.087,-2.986l-2.987,-1.088c-0.099,-0.036 -0.164,-0.13 -0.164,-0.235c0,-0.105 0.065,-0.199 0.164,-0.235l2.987,-1.088l1.087,-2.987c0.072,-0.197 0.398,-0.198 0.471,0l1.088,2.987l2.986,1.088c0.099,0.036 0.164,0.13 0.164,0.235c0,0.105 -0.065,0.199 -0.164,0.235l-2.986,1.088l-1.088,2.987c-0.036,0.098 -0.13,0.164 -0.236,0.164zM62.783,36.724l2.452,0.892c0.069,0.025 0.124,0.08 0.149,0.149l0.892,2.451l0.893,-2.451c0.025,-0.069 0.08,-0.124 0.149,-0.149l2.451,-0.892l-2.451,-0.893c-0.069,-0.025 -0.124,-0.08 -0.149,-0.149l-0.893,-2.451l-0.892,2.451c-0.025,0.069 -0.08,0.124 -0.149,0.149z" fill="#472b29"></path></g><g><path d="M70.5,39l0.667,1.833l1.833,0.667l-1.833,0.667l-0.667,1.833l-0.667,-1.833l-1.833,-0.667l1.833,-0.667z" fill="#ffffff"></path><path d="M70.5,44.25c-0.105,0 -0.199,-0.066 -0.235,-0.165l-0.627,-1.723l-1.724,-0.628c-0.099,-0.036 -0.164,-0.13 -0.164,-0.235c0,-0.105 0.065,-0.199 0.164,-0.235l1.724,-0.628l0.627,-1.723c0.072,-0.198 0.398,-0.198 0.471,0l0.627,1.723l1.724,0.628c0.099,0.036 0.164,0.13 0.164,0.235c0,0.105 -0.065,0.199 -0.164,0.235l-1.724,0.628l-0.627,1.723c-0.037,0.099 -0.131,0.165 -0.236,0.165zM68.73,41.5l1.188,0.432c0.069,0.025 0.124,0.08 0.149,0.149l0.432,1.187l0.432,-1.187c0.025,-0.069 0.08,-0.124 0.149,-0.149l1.19,-0.432l-1.188,-0.432c-0.069,-0.025 -0.124,-0.08 -0.149,-0.149l-0.433,-1.188l-0.432,1.187c-0.025,0.069 -0.08,0.124 -0.149,0.149z" fill="#472b29"></path></g></g></g></svg>